<?xml version="1.0" encoding="utf-8"?>
<!-- Generator: Adobe Illustrator 24.1.2, SVG Export Plug-In . SVG Version: 6.00 Build 0)  -->
<svg version="1.1" id="Layer_1" xmlns="http://www.w3.org/2000/svg" xmlns:xlink="http://www.w3.org/1999/xlink" x="0px" y="0px"
	 viewBox="0 0 1920 1920" style="enable-background:new 0 0 1920 1920;" xml:space="preserve">
<style type="text/css">
	.st0{fill:#006837;}
	.st1{fill:#C1272D;}
</style>
<g>
	<g>
		<circle class="st0" cx="666.71" cy="433.74" r="68.74"/>
		<circle class="st0" cx="666.71" cy="1023.37" r="68.74"/>
		<circle class="st0" cx="1253.29" cy="1023.37" r="68.74"/>
		<circle class="st0" cx="1253.29" cy="433.74" r="68.74"/>
		<path class="st0" d="M874.46,963.8c13.47,0,25.28,6.99,32.08,17.51v-31.8c-83.2-20.36-148.66-85.82-169.02-169.02h-30.29
			c-16,0-23.72-24.44-11.57-35.88l-0.02,0c9.05-4.06,15.37-13.13,15.37-23.69c0-14.34-11.63-25.97-25.97-25.97
			c-14.34,0-25.97,11.63-25.97,25.97c0,10.56,6.32,19.64,15.37,23.69l-0.02,0c12.14,11.44,4.43,35.88-11.57,35.88h-39.08
			c7.59,46.97,24.79,90.7,49.44,129.2c12.96-10.12,29.25-16.17,46.96-16.17c42.18,0,76.38,34.2,76.38,76.38
			c0,17.39-5.82,33.41-15.61,46.25c37.61,23.42,80.09,39.74,125.59,47.1v-40.59c-6.8,10.53-18.61,17.51-32.08,17.51
			c-21.09,0-38.19-17.1-38.19-38.19C836.27,980.89,853.37,963.8,874.46,963.8z"/>
		<path class="st0" d="M1255.63,780.49c10.53,6.8,17.51,18.61,17.51,32.08c0,21.09-17.1,38.19-38.19,38.19
			c-21.09,0-38.19-17.1-38.19-38.19c0-13.47,6.99-25.28,17.51-32.08h-28.75c-20.36,83.2-85.82,148.66-169.02,169.02v33.34
			c0,16-24.44,23.72-35.88,11.57l0,0.02c-4.06-9.05-13.13-15.37-23.69-15.37c-14.34,0-25.97,11.63-25.97,25.97
			c0,14.34,11.63,25.97,25.97,25.97c10.56,0,19.64-6.32,23.69-15.37l0,0.02c11.44-12.14,35.88-4.43,35.88,11.57v36.02
			c44.67-7.22,86.42-23.1,123.52-45.84c-10.38-13.04-16.59-29.54-16.59-47.5c0-42.18,34.2-76.38,76.38-76.38
			c18.64,0,35.71,6.69,48.97,17.78c25.21-38.89,42.78-83.19,50.48-130.82H1255.63z"/>
		<path class="st0" d="M966.11,429.16c-10.56,0-19.64,6.32-23.69,15.37l0-0.02c-11.44,12.14-35.88,4.43-35.88-11.57v-45.19
			c-46.83,7.57-90.44,24.68-128.86,49.21c11.74,13.43,18.88,31,18.88,50.24c0,42.18-34.2,76.38-76.38,76.38
			c-18.91,0-36.21-6.89-49.55-18.28c-23.29,37.52-39.52,79.87-46.85,125.21h39.54c-8.2-7-13.41-17.4-13.41-29.02
			c0-21.09,17.1-38.19,38.19-38.19c21.09,0,38.19,17.1,38.19,38.19c0,11.63-5.21,22.02-13.41,29.02h24.64
			c20.36-83.2,85.82-148.66,169.02-169.02v-24.18c0-16,24.44-23.72,35.88-11.57l0-0.02c4.06,9.05,13.13,15.37,23.69,15.37
			c14.34,0,25.97-11.63,25.97-25.97S980.45,429.16,966.11,429.16z"/>
		<path class="st0" d="M1245.55,706.39l0.02,0c-12.14-11.44-4.43-35.88,11.57-35.88h42.13c-7.44-46.03-24.09-88.97-47.95-126.91
			c-13.58,12.41-31.66,19.98-51.5,19.98c-42.18,0-76.38-34.2-76.38-76.38c0-19.85,7.57-37.92,19.98-51.5
			c-37.94-23.86-80.88-40.51-126.91-47.95v46.7c6.8-10.53,18.61-17.51,32.08-17.51c21.09,0,38.19,17.1,38.19,38.19
			c0,21.09-17.1,38.19-38.19,38.19c-13.47,0-25.28-6.99-32.08-17.51v25.69c83.2,20.36,148.66,85.82,169.02,169.02h27.23
			c16,0,23.72,24.44,11.57,35.88l0.02,0c-9.05,4.06-15.37,13.13-15.37,23.69c0,14.34,11.63,25.97,25.97,25.97
			c14.34,0,25.97-11.63,25.97-25.97C1260.93,719.52,1254.61,710.45,1245.55,706.39z"/>
	</g>
	<path class="st1" d="M1099.33,663.61c-4.36-0.4-9.42-0.33-13.22,1.5c-17.81,8.6-28.36,22.89-30.47,42.75
		c-1.02,9.54-0.72,19.23-2.05,28.72c-1.85,13.21-4.72,26.27-7.02,39.42c-0.52,2.99-0.82,6.09-0.69,9.11
		c0.62,14.43,1.69,28.84,1.97,43.28c0.07,3.41-1.98,7.04-3.73,10.2c-0.63,1.14-3.5,2-4.84,1.54c-1.56-0.54-3.05-2.49-3.7-4.17
		c-0.69-1.8-0.28-3.99-0.48-6c-0.66-6.63-1.24-13.28-2.12-19.88c-0.89-6.73-2.22-13.4-3.13-20.13c-0.57-4.22-2.61-5.48-6.28-3.29
		c-4.66,2.79-5.68,7.41-6.21,12.38c-0.51,4.76-1.06,9.57-2.27,14.18c-3.61,13.66-7.62,27.22-11.34,40.86
		c-1.31,4.81-4.12,6.98-8.67,6.18c-4.14-0.73-6.26-4.01-5.25-8.83c1.05-5.01,2.67-9.89,3.76-14.89c1.25-5.73,2.19-11.52,3.27-17.28
		c1.4-7.46,2.8-14.91,4.21-22.37c0.27-1.46,0.55-2.91,0.96-5.13c-5.64,0.45-7.14,3.9-8.21,7.48c-1.16,3.88-2.32,7.77-3.46,11.66
		c-0.02,0.05-0.03,0.09-0.04,0.15c-4.75,16.22-14.22,44.61-14.22,44.61s-10.48,16.56-19.27,5.07c-2.55-3.56,5.64-24.75,9.84-35
		c0.07-1.01,0.41-1.97,0.85-2.99c0.36-0.82,0.79-1.6,1.18-2.4c0.1-0.2,0.2-0.4,0.29-0.6l0-0.2c1.96-5.59,3.83-11.22,6.02-16.73
		c1.43-3.59,3.77-6.85,5.02-10.49c0.8-2.33,0.35-5.09,0.48-7.86c-5.18,0.07-6.1,3.27-7.44,5.97c-1.47,2.95-2.93,5.9-4.39,8.86v0
		c0,0,0,0.01-0.01,0.02c-1.9,3.84-3.8,7.69-5.72,11.53c-0.02,0.05-0.05,0.1-0.08,0.15c-0.3,2.62-1.69,5-2.91,7.32
		c0.03,0.03,0.07,0.06,0.1,0.1c-7.08,14.23-16.87,30.32-22.82,24.76c-7.48-6.98-0.62-22.5,3.5-30.17c0.2-0.49,0.45-0.97,0.66-1.4
		c0.03-0.05,0.06-0.11,0.09-0.16c0.33-0.56,0.73-1.07,1.16-1.54c6.47-13.15,12.54-25.46,18.33-37.22c6.09,2.15,10.9,4.66,15.98,5.43
		c7.28,1.11,14.8,0.54,22.11,1.47c5.63,0.72,11.06,2.84,16.66,3.93c2.04,0.4,4.31-0.36,6.48-0.6c-0.53-2.28-0.39-5.08-1.71-6.75
		c-3.14-3.99-7.78-5.68-12.84-5.47c-11.29,0.48-22.56,1.19-33.85,1.71c-1.44,0.07-2.9-0.43-4.36-0.67c0-0.44,0.01-0.88,0.01-1.32
		c5.06-1.42,10.12-2.84,15.18-4.27c0.04-0.55,0.08-1.11,0.12-1.66c-1.55-0.48-3.06-1.17-4.65-1.41c-4.76-0.73-9.56-1.18-14.31-1.97
		c-1.15-0.19-2.16-1.25-3.24-1.91c0.15-0.34,0.31-0.67,0.46-1.01h18.41c0.07-0.38,0.14-0.77,0.21-1.15
		c-7.45-1.75-14.9-3.5-22.35-5.25c0.1-0.79,0.19-1.59,0.29-2.38c7.82-2.09,15.52,2.65,23.3,2.62c0.07-0.42,0.15-0.85,0.22-1.27
		c-6.11-2.24-12.22-4.47-18.33-6.71c0-0.57,0-1.14,0-1.72c1.5-0.3,3.13-1.13,4.49-0.81c4.98,1.17,9.87,2.69,14.78,4.13
		c4.06,1.2,8.06,2.87,12.68,1.21c-2.11-4.94-8.09-8.42-4.9-14.84c4.92,4.98,9.45,9.51,13.91,14.11c2.05,2.11,4.26,4.14,5.87,6.55
		c1.98,2.96,4.26,3.97,7.5,2.56c8.53-3.72,17.06-7.42,25.53-11.26c2.73-1.24,4.94-3.29,3.58-6.6c-1.44-3.49-4.48-2.14-6.87-1.32
		c-8.65,2.99-17.23,6.2-25.85,9.28c-1.11,0.4-2.32,0.51-3.48,0.76c-0.16-0.48-0.32-0.96-0.48-1.45c1.69-0.87,3.38-1.76,5.09-2.61
		c8.73-4.37,17.49-8.69,26.17-13.15c1.49-0.76,3.17-1.87,3.86-3.27c0.72-1.45,1.01-3.85,0.25-5.06c-0.72-1.16-3.01-1.64-4.67-1.81
		c-1.08-0.11-2.3,0.81-3.4,1.38c-8.84,4.57-17.64,9.21-26.5,13.72c-1.42,0.72-3.09,0.95-4.64,1.4c-0.15-0.41-0.3-0.81-0.44-1.22
		c8.1-5.41,16.21-10.81,24.29-16.24c2.04-1.37,3.86-2.93,2.07-5.7c-1.63-2.53-3.8-2.38-6.07-1.02
		c-8.64,5.19-17.29,10.36-25.87,15.66c-2.35,1.45-4.52,2.56-7.89,0.56c5.05-6.48,9.98-12.58,14.58-18.92
		c1.07-1.48,1.03-3.76,1.51-5.68c-2.12,0.1-4.69-0.52-6.26,0.46c-2.71,1.7-4.88,4.3-7.11,6.68c-4.36,4.64-8.23,9.8-12.99,13.96
		c-5.95,5.2-12.81,9.34-18.9,14.4c-9.57,7.96-19.54,15.21-32.23,16.77c-4.89,0.6-10.37,0.23-14.95-1.42
		c-5.92-2.15-5.88-6.96-0.57-10.39c1.68-1.09,3.51-2.1,5.42-2.68c13.22-4.02,23.9-11.84,33.02-21.95
		c4.79-5.31,9.1-11.08,16.49-13.22c1.49-0.43,2.72-2.02,3.89-3.25c5.77-6.07,12.34-10.8,20.38-13.56
		c6.53-2.24,11.28-8.97,10.2-15.16c-2.04-11.77-4.25-23.57-7.39-35.08c-2.98-10.92-6.95-21.61-10.99-32.2
		c-4.43-11.61-9.41-23.01-14.19-34.49c-3.06-7.36-9.8-8.31-16.37-8.5c-4.45-0.13-11.04,3.81-9.85,10.62
		c1.44,8.22,3.49,16.34,5.5,24.45c2.42,9.77,5.85,19.36,7.46,29.25c2.69,16.42,4.71,32.92,10.66,48.63
		c1.06,2.81,1.15,6.11,1.09,9.17c-0.03,1.73-1.29,3.44-2.04,5.29c-5.85-2.2-8.56-6.03-9.78-10.92c-1.95-7.84-3.31-15.85-5.53-23.61
		c-2.12-7.43-4.65-14.8-7.66-21.92c-4.83-11.44-10.32-22.59-15.33-33.96c-4.38-9.94-8.17-20.16-12.88-29.93
		c-1.74-3.6-5.01-6.75-8.22-9.29c-3.77-2.98-8.78-1.93-11.92,1.6c0,0,0,0,0,0c-8.45,1.84-10.88,5.69-8.78,14.57
		c0.86,3.62,2.13,7.17,3.56,10.6c3.69,8.9,8.3,17.49,11.22,26.62c7.1,22.23,13.89,44.54,24.33,65.53c1.59,3.19,3.08,6.53,3.92,9.97
		c0.75,3.09,0.91,6.46,0.59,9.63c-0.14,1.43-2.1,2.67-3.23,3.99c-1.1-1.17-2.5-2.17-3.25-3.54c-6.32-11.58-12.32-23.33-18.81-34.8
		c-4.42-7.81-9.97-15.01-14.13-22.94c-5.48-10.45-9.99-21.41-15.13-32.04c-4.17-8.61-11.74-10.19-19.21-4.31
		c-5.62,4.42-6.56,7.29-3.69,14.23c8,19.4,15.97,38.81,24.38,58.03c5.65,12.92,10.87,26.09,20.35,37.04
		c3.98,4.6,6.14,10.52,5.13,16.96c-0.66,4.2-1.53,8.77-6.1,10.23c-4.3,1.37-5.94-3.05-8.43-5.41c-6.73-6.4-13-13.41-20.33-19.03
		c-9.04-6.94-18-13.78-25.41-22.52c-4.21-4.98-8.69-9.75-13.3-14.37c-2.87-2.88-6.6-3.58-10.36-1.83c-3.75,1.75-5.27,5.11-5.51,9.09
		c-0.36,5.89,1.6,11.09,5.25,15.56c5.51,6.74,11.19,13.35,16.9,19.93c13.02,15.01,25.16,30.85,40.73,43.5
		c1.4,1.14,2.91,2.7,3.37,4.34c4.19,14.81,14.53,26.3,21.3,39.7c0.32,0.63,0.83,1.32,1.4,1.91c15.82,28.95,30.94,55.56,43.49,62.16
		c12.84,6.76,25.12,9.4,38.92,2.67c1.03-0.5,1.86-1.04,2.53-1.6c0.01,0,0.02-0.01,0.03-0.01c2.77-1.41,5.44-3.07,8.32-4.19
		c2.81-1.1,5.8-2.22,8.76-2.36c17.4-0.85,33.55-4.01,43.01-21.03c0.6-1.07,1.51-1.98,2.32-2.92c8.75-10.06,13.36-21.93,15.34-34.96
		c1.53-10.05,1.67-20.4,8.09-29.22c1.59-2.19,1.78-5.59,2.06-8.49c0.51-5.26,0.62-10.55,0.85-15.83
		c0.96-22.23,5.76-43.37,17.31-62.71c3.41-5.71,6.63-11.65,9.07-17.82C1108.18,670.39,1105.09,664.14,1099.33,663.61z
		 M1084.91,667.97c0.48-0.14,0.95-0.28,1.43-0.41c0.02,0.23,0.04,0.45,0.05,0.68C1085.9,668.15,1085.4,668.06,1084.91,667.97z"/>
</g>
<g>
	<circle class="st1" cx="615.5" cy="1485.5" r="23.5"/>
	<circle class="st1" cx="1084.5" cy="1411.5" r="23.5"/>
	<circle class="st1" cx="1539.5" cy="1411.5" r="23.5"/>
</g>
<g>
	<path class="st0" d="M701.73,1472.54c-5.45-7.16-11.98-13.29-19.59-18.4c-7.61-5.11-15.96-9.03-25.04-11.75v-23.85h-4.74
		c0.02-5.53,0.06-11.05,0.15-16.53c0.11-7.84,0.51-15.62,1.19-23.34c0.45-5.22,1.19-9.99,2.21-14.31c1.02-4.31,2.1-8.52,3.24-12.61
		c1.13-4.09,2.1-8.23,2.9-12.44c0.79-4.2,1.19-8.8,1.19-13.8c0-5.9-0.97-11.41-2.9-16.52c-1.93-5.11-4.66-9.59-8.18-13.46
		c-3.52-3.86-7.73-6.93-12.61-9.2c-4.89-2.27-10.28-3.41-16.18-3.41c-6.36,0-12.95,1.14-19.76,3.41v-55.2h73.6v-18.06H464.59h-6.81
		H263.22v18.06h149.24v0.68c-0.68,4.09-4.49,7.73-11.41,10.9c-6.93,3.18-15.39,6.53-25.38,10.05c-10,3.52-20.73,7.5-32.2,11.93
		c-11.47,4.43-22.15,10-32.03,16.7c-9.88,6.7-18.06,14.99-24.53,24.87c-6.47,9.88-9.71,21.87-9.71,35.95
		c0,23.85,10.16,42.48,30.5,55.88c20.33,13.41,49.92,20.1,88.76,20.1c2.95,0,5.73,0,8.35,0c2.61,0,5.16-0.11,7.67-0.34v7.5h32.03
		v-194.21h13.29h6.81h106.99v22.15l-6.13-3.07c-5.68-2.73-11.47-4.94-17.38-6.64c-5.91-1.7-11.47-3.07-16.7-4.09
		c-5.23-1.02-10.05-1.7-14.48-2.04c-4.43-0.34-8.01-0.51-10.73-0.51c-7.95,0-14.2,1.42-18.74,4.26c-4.55,2.84-8.01,6.3-10.39,10.39
		c-2.38,4.09-3.87,8.35-4.43,12.78c-0.57,4.43-0.85,8.24-0.85,11.41c0,5.91,0.91,11.93,2.73,18.06c1.82,6.13,4.82,11.64,9.03,16.53
		c4.2,4.89,9.76,8.92,16.7,12.1c6.93,3.18,15.62,4.77,26.07,4.77v-32.03c-8.64,0-14.48-1.99-17.55-5.96
		c-3.07-3.97-4.6-8.01-4.6-12.1c0-1.82,0-3.52,0-5.11c0-1.59,0.11-2.61,0.34-3.07h3.41c3.63,0.23,9.03,0.85,16.18,1.87
		s14.25,2.84,21.3,5.45c7.04,2.61,13.17,6.36,18.4,11.24c5.22,4.89,7.84,11.19,7.84,18.91V1317c-3.18,1.82-7.67,3.47-13.46,4.94
		c-5.79,1.48-12.15,3.13-19.08,4.94c-6.93,1.82-13.97,3.92-21.13,6.3s-13.69,5.45-19.59,9.2c-5.91,3.75-10.73,8.29-14.48,13.63
		c-3.75,5.34-5.62,11.87-5.62,19.59c0,10,2.95,18,8.86,24.02c5.9,6.02,13.29,10.68,22.15,13.97c8.86,3.29,18.28,5.51,28.28,6.64
		c9.99,1.14,19.08,1.7,27.26,1.7h6.81v2.04h32.03v-103.24c4.54-2.27,8.4-3.8,11.58-4.6c3.18-0.79,5.79-1.19,7.84-1.19
		c3.63,0,5.9,0.97,6.81,2.9c0.9,1.93,1.36,4.15,1.36,6.64c0,2.27-0.29,5.11-0.85,8.52c-0.57,3.41-1.42,6.7-2.56,9.88
		c-1.59,5-2.84,10.73-3.75,17.21c-0.91,6.47-1.65,13.35-2.21,20.61c-0.57,7.27-0.97,14.77-1.19,22.49
		c-0.23,7.72-0.34,15.22-0.34,22.49h4.43v10.9c-2.27,0-4.2-0.06-5.79-0.17c-1.59-0.12-2.95-0.17-4.09-0.17
		c-1.13,0-2.04,0.05-2.73,0.17c-0.68,0.11-1.13,0.17-1.36,0.17v0.34c-6.13,0.22-11.87,1.53-17.21,3.93
		c-5.33,2.39-9.99,5.58-13.97,9.58c-3.97,3.99-7.04,8.66-9.2,14.02c-2.16,5.35-3.24,11.11-3.24,17.27c0,6.15,1.19,11.92,3.58,17.28
		c2.39,5.35,5.62,10.08,9.71,14.19c4.09,4.1,8.86,7.35,14.31,9.75c5.45,2.39,11.24,3.59,17.38,3.59c5.91,0,11.58-1.14,17.04-3.41
		c5.45-2.27,10.22-5.45,14.31-9.54c4.09-4.09,7.33-8.86,9.71-14.31c2.39-5.45,3.58-11.24,3.58-17.38c0-0.91,0-1.93,0-3.07
		c0-1.14-0.22-1.93-0.68-2.38c10.22,4.09,17.89,10.27,23,18.57c5.11,8.29,7.67,18.91,7.67,31.86h32.03c0-10.9-1.48-20.9-4.43-29.98
		C711.38,1487.81,707.18,1479.69,701.73,1472.54z M412.46,1385.48c-2.28,0.23-4.56,0.4-6.84,0.51c-2.28,0.12-4.67,0.17-7.18,0.17
		c-7.06,0-14.24-0.28-21.54-0.85c-7.29-0.56-14.36-1.59-21.2-3.07c-6.84-1.47-13.33-3.46-19.49-5.96c-6.15-2.5-11.5-5.56-16.06-9.2
		c-7.29-6.13-10.94-14.53-10.94-25.21c0-7.04,1.65-13.23,4.96-18.57c3.3-5.33,7.92-10.11,13.84-14.31
		c5.93-4.2,13.16-8.12,21.71-11.76c8.54-3.63,18.06-7.16,28.55-10.56c5.92-2.04,11.79-4.14,17.6-6.3
		c5.81-2.16,11.34-4.48,16.58-6.98V1385.48z M571.58,1389.91h-8.18c-10.45,0-20.5-0.79-30.15-2.39c-9.66-1.59-16.75-4.2-21.3-7.84
		c-1.14-1.13-1.7-2.27-1.7-3.41c0-2.04,1.47-4.03,4.43-5.96c2.95-1.93,6.64-3.8,11.07-5.62c4.43-1.82,9.2-3.46,14.31-4.94
		c5.11-1.48,9.93-2.78,14.48-3.92c4.54-1.13,8.4-2.04,11.58-2.73c3.18-0.68,4.99-1.13,5.45-1.36V1389.91z M620.98,1490.77
		c-2.5,2.5-5.45,3.75-8.86,3.75c-3.63,0-6.7-1.25-9.2-3.75c-2.5-2.5-3.75-5.45-3.75-8.86c0-3.64,1.25-6.7,3.75-9.2
		c2.5-2.5,5.57-3.75,9.2-3.75c3.41,0,6.36,1.25,8.86,3.75c2.5,2.5,3.75,5.56,3.75,9.2C624.73,1485.31,623.48,1488.26,620.98,1490.77
		z"/>
	<path class="st0" d="M1462.23,1213.07h-6.82h-13.63v-4.43h-32.03v9.88c-1.82-2.04-3.81-3.46-5.96-4.26
		c-1.39-0.51-3.83-0.86-7.33-1.04v-0.15h-194.55h-6.81h-187.74h-6.82h-13.28v-10.56c0-9.54,1.36-17.83,4.09-24.87
		c2.73-7.04,5.9-12.95,9.54-17.72c3.63-4.77,7.27-8.46,10.9-11.07c3.63-2.61,6.36-4.37,8.18-5.28c12.95-6.36,26.23-9.54,39.86-9.54
		c6.13,0,13.46,1.02,21.98,3.07c8.52,2.04,16.81,5.57,24.87,10.56c8.06,5,14.99,11.7,20.78,20.1c5.79,8.41,8.91,19.08,9.37,32.03
		h32.03c-0.46-13.63-3.52-26.41-9.2-38.33c-5.68-11.92-13.4-22.26-23.17-31.01c-9.77-8.74-21.18-15.67-34.24-20.78
		c-13.06-5.11-27.21-7.67-42.42-7.67c-14.77,0-28.51,2.44-41.23,7.33c-12.72,4.89-23.74,11.7-33.05,20.44
		c-9.32,8.75-16.7,19.31-22.15,31.69c-5.45,12.38-8.18,26.07-8.18,41.06v10.56h-13.29h-6.82h-13.29v-4.43h-32.03v34.07
		c-0.23,0-0.34,0.12-0.34,0.34c-27.03-20.67-53.15-31.01-78.37-31.01c-14.54,0-27.09,3.24-37.65,9.71
		c-10.56,6.47-18.91,15.73-25.04,27.77c-4.09,9.32-6.13,18.4-6.13,27.26c0,7.27,1.18,14.2,3.54,20.78
		c2.36,6.59,5.62,12.61,9.78,18.06c4.16,5.45,9.17,10.28,15.03,14.48c5.86,4.21,12.31,7.33,19.35,9.37l-14.65,13.29l21.87,23.51
		l54.34-49.75c7.29-5.45,14.12-11.07,20.5-16.87c6.38-5.79,12.3-11.64,17.77-17.55v133.57h32.03v-194.56h13.29h6.82h13.29v193.87
		h32.03v-193.87h13.28h6.82h142.42v0.68c0,4.32-3.36,8.01-10.05,11.07c-6.7,3.07-15.05,6.3-25.04,9.71
		c-10,3.41-20.84,7.27-32.54,11.58c-11.7,4.32-22.55,9.88-32.54,16.7c-10,6.81-18.35,15.16-25.04,25.04
		c-6.7,9.88-10.05,21.98-10.05,36.29c0,22.26,9.08,40.66,27.26,55.2c-1.59,4.09-2.38,8.63-2.38,13.63c0,6.13,1.19,11.98,3.59,17.55
		c2.39,5.56,5.64,10.39,9.74,14.48c4.1,4.09,8.94,7.33,14.53,9.71c5.58,2.38,11.45,3.58,17.6,3.58c20.51,0,34.98-10.68,43.41-32.03
		c3.87-0.22,7.63-0.56,11.28-1.02c3.64-0.45,7.06-0.9,10.25-1.36v5.11h32.03v-195.92h13.29h6.81h142.42v0.68
		c-0.68,4.09-4.49,7.73-11.41,10.9c-6.93,3.18-15.39,6.53-25.38,10.05c-10,3.52-20.73,7.5-32.2,11.93
		c-11.47,4.43-22.15,10-32.03,16.7c-9.88,6.7-18.06,14.99-24.53,24.87c-6.47,9.88-9.71,21.87-9.71,35.95
		c0,23.85,10.16,42.48,30.5,55.88c20.33,13.41,49.92,20.1,88.76,20.1c2.95,0,5.73,0,8.35,0c2.61,0,5.16-0.11,7.67-0.34v7.5h32.03
		v-194.21h13.29h5.11c9.76,0,14.76,4.89,14.99,14.65v179.22h32.03v-193.87h13.63h6.82h142.42v0.68c0,4.32-3.36,8.01-10.05,11.07
		c-6.7,3.07-15.05,6.3-25.04,9.71c-10,3.41-20.84,7.27-32.54,11.58c-11.7,4.32-22.55,9.88-32.54,16.7
		c-10,6.81-18.35,15.16-25.04,25.04c-6.7,9.88-10.05,21.98-10.05,36.29c0,22.26,9.08,40.66,27.26,55.2
		c-1.59,4.09-2.38,8.63-2.38,13.63c0,6.13,1.19,11.98,3.59,17.55c2.39,5.56,5.64,10.39,9.74,14.48c4.1,4.09,8.94,7.33,14.53,9.71
		c5.58,2.38,11.45,3.58,17.6,3.58c20.51,0,34.98-10.68,43.41-32.03c3.87-0.22,7.63-0.56,11.28-1.02c3.64-0.45,7.06-0.9,10.25-1.36
		v5.11h32.03v-195.92h20.1v-18.06H1462.23z M830.53,1302l-2.38,1.7c-5.91,4.32-12.27,6.47-19.08,6.47c-4.77,0-9.32-0.91-13.63-2.73
		c-4.32-1.82-8.01-4.2-11.07-7.16c-3.07-2.95-5.51-6.42-7.33-10.39c-1.82-3.97-2.73-8.23-2.73-12.78c0-5.45,0.96-10.22,2.9-14.31
		c1.93-4.09,4.6-7.5,8.01-10.22c3.41-2.73,7.33-4.82,11.76-6.3c4.43-1.47,9.03-2.21,13.8-2.21c17.49,0,36.68,7.84,57.58,23.51
		L830.53,1302z M1094.36,1420.41c-2.65,2.61-5.81,3.92-9.49,3.92c-3.68,0-6.85-1.3-9.49-3.92c-2.65-2.61-3.97-5.73-3.97-9.37
		c0-3.63,1.32-6.76,3.97-9.37c2.65-2.61,5.81-3.92,9.49-3.92c3.68,0,6.84,1.31,9.49,3.92c2.64,2.61,3.97,5.74,3.97,9.37
		C1098.33,1414.67,1097.01,1417.8,1094.36,1420.41z M1149.78,1388.89c-6.15,1.82-14.13,2.84-23.93,3.07
		c-9.35-17.49-23.02-26.24-41.02-26.24c-8.43,0-16.19,2.16-23.25,6.47c-10.03-7.5-15.04-17.49-15.04-29.98
		c0-7.04,1.65-13.23,4.96-18.57c3.3-5.33,7.92-10.1,13.84-14.31c5.93-4.2,13.16-8.12,21.71-11.75c8.54-3.63,18.06-7.16,28.55-10.56
		c5.92-2.04,11.79-4.14,17.6-6.3c5.81-2.16,11.34-4.48,16.58-6.98V1388.89z M1344.34,1385.48c-2.28,0.23-4.56,0.4-6.84,0.51
		c-2.28,0.12-4.67,0.17-7.18,0.17c-7.06,0-14.24-0.28-21.54-0.85c-7.29-0.56-14.36-1.59-21.2-3.07c-6.84-1.47-13.33-3.46-19.49-5.96
		c-6.15-2.5-11.5-5.56-16.06-9.2c-7.29-6.13-10.94-14.53-10.94-25.21c0-7.04,1.65-13.23,4.96-18.57c3.3-5.33,7.92-10.11,13.84-14.31
		c5.93-4.2,13.16-8.12,21.71-11.76c8.54-3.63,18.06-7.16,28.55-10.56c5.92-2.04,11.79-4.14,17.6-6.3
		c5.81-2.16,11.34-4.48,16.58-6.98V1385.48z M1549.23,1420.41c-2.65,2.61-5.81,3.92-9.49,3.92c-3.68,0-6.85-1.3-9.49-3.92
		c-2.65-2.61-3.97-5.73-3.97-9.37c0-3.63,1.32-6.76,3.97-9.37c2.65-2.61,5.81-3.92,9.49-3.92c3.68,0,6.84,1.31,9.49,3.92
		c2.64,2.61,3.97,5.74,3.97,9.37C1553.2,1414.67,1551.88,1417.8,1549.23,1420.41z M1604.65,1388.89
		c-6.15,1.82-14.13,2.84-23.93,3.07c-9.35-17.49-23.02-26.24-41.02-26.24c-8.43,0-16.19,2.16-23.25,6.47
		c-10.03-7.5-15.04-17.49-15.04-29.98c0-7.04,1.65-13.23,4.96-18.57c3.3-5.33,7.92-10.1,13.84-14.31
		c5.93-4.2,13.16-8.12,21.71-11.75c8.54-3.63,18.06-7.16,28.55-10.56c5.92-2.04,11.79-4.14,17.6-6.3
		c5.81-2.16,11.34-4.48,16.58-6.98V1388.89z"/>
</g>
</svg>
